<svg xmlns="http://www.w3.org/2000/svg" width="512" height="512" viewBox="0 0 512 512"><title>Fitness Girl — Droplets</title><path d="M256 26 306 62 367 58 392 111 448 136 443 197 480 247 446 301 450 362 395 389 369 445 307 441 256 480 203 443 143 448 116 394 60 368 65 307 27 256 62 202 58 143 111 118 137 63 200 66Z" fill="#081619" stroke="#f5e0a4" stroke-width="5"/><circle cx="256" cy="254" r="188" fill="none" stroke="#74cfff" stroke-width="2" opacity=".65"/><svg xmlns="http://www.w3.org/2000/svg" width="232" height="232" viewBox="0 0 24 24" fill="none" stroke="#74cfff" stroke-width="1.45" stroke-linecap="round" stroke-linejoin="round" class="lucide lucide-droplets" aria-hidden="true" x="140" y="102"><path d="M7 16.3c2.2 0 4-1.83 4-4.05 0-1.16-.57-2.26-1.71-3.19S7.29 6.75 7 5.3c-.29 1.45-1.14 2.84-2.29 3.76S3 11.1 3 12.25c0 2.22 1.8 4.05 4 4.05z"></path><path d="M12.56 6.6A10.97 10.97 0 0 0 14 3.02c.5 2.5 2 4.9 4 6.5s3 3.5 3 5.5a6.98 6.98 0 0 1-11.91 4.97"></path></svg><path d="M130 360H382M145 367H367" stroke="#74cfff" stroke-width="4"/><text x="256" y="398" text-anchor="middle" textLength="192" lengthAdjust="spacingAndGlyphs" font-family="DejaVu Sans,Arial,sans-serif" font-size="25" font-weight="900" fill="#ffe9ad">FITNESS GIRL</text><text x="256" y="425" text-anchor="middle" font-family="DejaVu Sans,Arial,sans-serif" font-size="12" font-weight="bold" letter-spacing="4" fill="#74cfff">STREET LEGENDS</text></svg>
