<svg xmlns="http://www.w3.org/2000/svg" width="512" height="512" viewBox="0 0 512 512"><title>The Guy She Told You Not to Worry About — KeyRound</title><path d="M256 26 306 62 367 58 392 111 448 136 443 197 480 247 446 301 450 362 395 389 369 445 307 441 256 480 203 443 143 448 116 394 60 368 65 307 27 256 62 202 58 143 111 118 137 63 200 66Z" fill="#081619" stroke="#f5e0a4" stroke-width="5"/><circle cx="256" cy="254" r="188" fill="none" stroke="#f0ce78" stroke-width="2" opacity=".65"/><svg xmlns="http://www.w3.org/2000/svg" width="232" height="232" viewBox="0 0 24 24" fill="none" stroke="#f0ce78" stroke-width="1.45" stroke-linecap="round" stroke-linejoin="round" class="lucide lucide-key-round" aria-hidden="true" x="140" y="102"><path d="M2.586 17.414A2 2 0 0 0 2 18.828V21a1 1 0 0 0 1 1h3a1 1 0 0 0 1-1v-1a1 1 0 0 1 1-1h1a1 1 0 0 0 1-1v-1a1 1 0 0 1 1-1h.172a2 2 0 0 0 1.414-.586l.814-.814a6.5 6.5 0 1 0-4-4z"></path><circle cx="16.5" cy="7.5" r=".5" fill="currentColor"></circle></svg><path d="M130 360H382M145 367H367" stroke="#f0ce78" stroke-width="4"/><text x="256" y="398" text-anchor="middle" textLength="300" lengthAdjust="spacingAndGlyphs" font-family="DejaVu Sans,Arial,sans-serif" font-size="25" font-weight="900" fill="#ffe9ad">THE GUY SHE TOLD YOU NOT TO WORRY ABOUT</text><text x="256" y="425" text-anchor="middle" font-family="DejaVu Sans,Arial,sans-serif" font-size="12" font-weight="bold" letter-spacing="4" fill="#f0ce78">STREET LEGENDS</text></svg>
