<svg xmlns="http://www.w3.org/2000/svg" width="512" height="512" viewBox="0 0 512 512"><title>Side Chick — HeartCrack</title><path d="M256 26 306 62 367 58 392 111 448 136 443 197 480 247 446 301 450 362 395 389 369 445 307 441 256 480 203 443 143 448 116 394 60 368 65 307 27 256 62 202 58 143 111 118 137 63 200 66Z" fill="#081619" stroke="#f5e0a4" stroke-width="5"/><circle cx="256" cy="254" r="188" fill="none" stroke="#f0ce78" stroke-width="2" opacity=".65"/><svg xmlns="http://www.w3.org/2000/svg" width="232" height="232" viewBox="0 0 24 24" fill="none" stroke="#f0ce78" stroke-width="1.45" stroke-linecap="round" stroke-linejoin="round" class="lucide lucide-heart-crack" aria-hidden="true" x="140" y="102"><path d="M12.409 5.824c-.702.792-1.15 1.496-1.415 2.166l2.153 2.156a.5.5 0 0 1 0 .707l-2.293 2.293a.5.5 0 0 0 0 .707L12 15"></path><path d="M13.508 20.313a2 2 0 0 1-3 .019L5 15c-1.5-1.5-3-3.2-3-5.5a5.5 5.5 0 0 1 9.591-3.677.6.6 0 0 0 .818.001A5.5 5.5 0 0 1 22 9.5c0 2.29-1.5 4-3 5.5z"></path></svg><path d="M130 360H382M145 367H367" stroke="#f0ce78" stroke-width="4"/><text x="256" y="398" text-anchor="middle" textLength="160" lengthAdjust="spacingAndGlyphs" font-family="DejaVu Sans,Arial,sans-serif" font-size="25" font-weight="900" fill="#ffe9ad">SIDE CHICK</text><text x="256" y="425" text-anchor="middle" font-family="DejaVu Sans,Arial,sans-serif" font-size="12" font-weight="bold" letter-spacing="4" fill="#f0ce78">STREET LEGENDS</text></svg>
