<svg xmlns="http://www.w3.org/2000/svg" width="512" height="512" viewBox="0 0 512 512"><title>The Hype Man — Megaphone</title><path d="M256 26 306 62 367 58 392 111 448 136 443 197 480 247 446 301 450 362 395 389 369 445 307 441 256 480 203 443 143 448 116 394 60 368 65 307 27 256 62 202 58 143 111 118 137 63 200 66Z" fill="#081619" stroke="#f5e0a4" stroke-width="5"/><circle cx="256" cy="254" r="188" fill="none" stroke="#e9c56f" stroke-width="2" opacity=".65"/><svg xmlns="http://www.w3.org/2000/svg" width="232" height="232" viewBox="0 0 24 24" fill="none" stroke="#e9c56f" stroke-width="1.45" stroke-linecap="round" stroke-linejoin="round" class="lucide lucide-megaphone" aria-hidden="true" x="140" y="102"><path d="M11 6a13 13 0 0 0 8.4-2.8A1 1 0 0 1 21 4v12a1 1 0 0 1-1.6.8A13 13 0 0 0 11 14H5a2 2 0 0 1-2-2V8a2 2 0 0 1 2-2z"></path><path d="M6 14a12 12 0 0 0 2.4 7.2 2 2 0 0 0 3.2-2.4A8 8 0 0 1 10 14"></path><path d="M8 6v8"></path></svg><path d="M130 360H382M145 367H367" stroke="#e9c56f" stroke-width="4"/><text x="256" y="398" text-anchor="middle" textLength="192" lengthAdjust="spacingAndGlyphs" font-family="DejaVu Sans,Arial,sans-serif" font-size="25" font-weight="900" fill="#ffe9ad">THE HYPE MAN</text><text x="256" y="425" text-anchor="middle" font-family="DejaVu Sans,Arial,sans-serif" font-size="12" font-weight="bold" letter-spacing="4" fill="#e9c56f">STREET LEGENDS</text></svg>
